<svg width="650" height="110" viewBox="0 0 650 110" fill="none" xmlns="http://www.w3.org/2000/svg">
<g clip-path="url(#clip0)">
<path d="M23.2983 38.4615C22.8468 38.4615 22.3927 38.4462 21.936 38.4154C18.0969 38.154 14.4224 36.7736 11.3769 34.4489C8.33152 32.1241 6.05196 28.9593 4.82642 25.3545C3.60087 21.7497 3.48437 17.8668 4.49163 14.1965C5.4989 10.5263 7.58471 7.2336 10.4854 4.73462C12.4121 3.07541 14.6506 1.80746 17.0731 1.00316C19.4957 0.198852 22.0548 -0.126057 24.6045 0.0469817C27.1541 0.22002 29.6443 0.887617 31.9328 2.01166C34.2213 3.1357 36.2634 4.69416 37.9424 6.59808C39.6215 8.50199 40.9046 10.7141 41.7185 13.108C42.5324 15.5019 42.8612 18.0309 42.6861 20.5504C42.511 23.0699 41.8354 25.5306 40.6979 27.7921C39.5605 30.0536 37.9834 32.0716 36.0567 33.7308C32.5267 36.7869 27.9914 38.4686 23.2983 38.4615ZM23.2594 11.5385C21.7433 11.542 20.2612 11.9829 18.9952 12.8071C17.7292 13.6313 16.7342 14.8029 16.1326 16.1781C15.5309 17.5533 15.3488 19.0721 15.6084 20.5481C15.868 22.0242 16.5582 23.3932 17.5942 24.487C18.6301 25.5809 19.9668 26.352 21.44 26.7056C22.9133 27.0593 24.459 26.9802 25.8873 26.4779C27.3157 25.9756 28.5645 25.0721 29.4805 23.8783C30.3965 22.6845 30.9398 21.2524 31.0436 19.7577C31.1161 18.7479 30.9862 17.734 30.6614 16.7739C30.3365 15.8138 29.8231 14.9266 29.1506 14.163C28.478 13.3994 27.6596 12.7745 26.7421 12.3242C25.8247 11.8738 24.8263 11.6068 23.8043 11.5385C23.6226 11.5385 23.441 11.5385 23.2594 11.5385Z" fill="#36C5F1"/>
<path d="M70.3931 110C69.9416 110 69.4876 109.985 69.0309 109.954C65.1911 109.693 61.5157 108.313 58.4695 105.988C55.4234 103.663 53.1432 100.498 51.9175 96.8929C50.6917 93.2875 50.5753 89.4039 51.583 85.7332C52.5908 82.0625 54.6773 78.7695 57.5789 76.2706C60.4805 73.7717 64.0668 72.1792 67.8843 71.6944C71.7018 71.2096 75.579 71.8543 79.0257 73.547C82.4724 75.2397 85.3338 77.9043 87.248 81.204C89.1622 84.5037 90.0433 88.2901 89.7798 92.0846C89.4429 96.941 87.2548 101.49 83.6569 104.815C80.0591 108.14 75.3191 109.993 70.3931 110ZM70.3542 83.0769C68.3145 83.1475 66.3845 84.0069 64.9797 85.4699C63.575 86.9329 62.8079 88.8827 62.8436 90.8992C62.8793 92.9157 63.715 94.8376 65.1707 96.2512C66.6264 97.6648 68.5857 98.4568 70.6267 98.4568C72.6676 98.4568 74.6269 97.6648 76.0826 96.2512C77.5383 94.8376 78.374 92.9157 78.4097 90.8992C78.4454 88.8827 77.6783 86.9329 76.2736 85.4699C74.8688 84.0069 72.9388 83.1475 70.8991 83.0769C70.7175 83.0769 70.5358 83.0769 70.3542 83.0769Z" fill="#2FB67C"/>
<path d="M35.3367 71.3961L28.5877 61.9808L19.0598 68.6461L12.3108 59.2308L2.78287 65.9L9.52794 75.3154L0 81.9846L6.74896 91.4L16.2769 84.7308L23.0259 94.15L32.5538 87.4808L25.8048 78.0654L35.3367 71.3961Z" fill="#E01E5A"/>
<path d="M98 36.3154L86.8452 32.9L90.3014 21.8769L79.1504 18.4615L75.6942 29.4846L64.5393 26.0692L61.0831 37.0885L72.238 40.5038L68.7818 51.5269L79.9327 54.9423L83.3889 43.9192L94.5438 47.3385L98 36.3154Z" fill="#ECB22D"/>
<path d="M145.094 96C144.375 96 143.787 95.804 143.33 95.412C142.873 94.9547 142.644 94.3667 142.644 93.648V29.85C142.644 29.1313 142.873 28.5433 143.33 28.086C143.787 27.6287 144.375 27.4 145.094 27.4H152.836C154.208 27.4 155.188 28.0207 155.776 29.262L174.69 64.542L193.8 29.262C194.453 28.0207 195.433 27.4 196.74 27.4H204.384C205.103 27.4 205.691 27.6287 206.148 28.086C206.605 28.5433 206.834 29.1313 206.834 29.85V93.648C206.834 94.3667 206.605 94.9547 206.148 95.412C205.691 95.804 205.103 96 204.384 96H196.152C195.499 96 194.943 95.7713 194.486 95.314C194.029 94.8567 193.8 94.3013 193.8 93.648V51.214L180.08 77.38C179.231 78.8173 178.12 79.536 176.748 79.536H172.73C171.358 79.536 170.247 78.8173 169.398 77.38L155.678 51.214V93.648C155.678 94.3013 155.449 94.8567 154.992 95.314C154.6 95.7713 154.045 96 153.326 96H145.094ZM242.854 96.98C235.602 96.98 229.82 94.8893 225.508 90.708C221.261 86.4613 219.007 80.516 218.746 72.872L218.648 70.422L218.746 67.972C219.072 60.524 221.359 54.6767 225.606 50.43C229.918 46.1833 235.667 44.06 242.854 44.06C250.563 44.06 256.508 46.412 260.69 51.116C264.936 55.82 267.06 62.092 267.06 69.932V71.99C267.06 72.6433 266.831 73.1987 266.374 73.656C265.916 74.1133 265.328 74.342 264.61 74.342H232.074V75.126C232.204 78.7193 233.184 81.7573 235.014 84.24C236.908 86.6573 239.489 87.866 242.756 87.866C246.61 87.866 249.714 86.3633 252.066 83.358C252.654 82.6393 253.111 82.182 253.438 81.986C253.83 81.79 254.385 81.692 255.104 81.692H263.532C264.12 81.692 264.61 81.888 265.002 82.28C265.459 82.6067 265.688 83.0313 265.688 83.554C265.688 85.122 264.74 86.984 262.846 89.14C261.016 91.2307 258.37 93.06 254.908 94.628C251.445 96.196 247.427 96.98 242.854 96.98ZM253.732 66.11V65.816C253.732 61.9613 252.752 58.858 250.792 56.506C248.897 54.154 246.251 52.978 242.854 52.978C239.456 52.978 236.81 54.154 234.916 56.506C233.021 58.858 232.074 61.9613 232.074 65.816V66.11H253.732ZM300.301 96C294.355 96 289.88 94.4647 286.875 91.394C283.935 88.258 282.465 83.6847 282.465 77.674V55.428H274.723C274.069 55.428 273.514 55.1993 273.057 54.742C272.599 54.2193 272.371 53.6313 272.371 52.978V47.392C272.371 46.7387 272.599 46.1833 273.057 45.726C273.514 45.2687 274.069 45.04 274.723 45.04H282.465V28.772C282.465 28.0533 282.693 27.498 283.151 27.106C283.608 26.6487 284.163 26.42 284.817 26.42H292.755C293.473 26.42 294.029 26.6487 294.421 27.106C294.878 27.498 295.107 28.0533 295.107 28.772V45.04H307.357C308.075 45.04 308.631 45.2687 309.023 45.726C309.48 46.118 309.709 46.6733 309.709 47.392V52.978C309.709 53.6967 309.48 54.2847 309.023 54.742C308.565 55.1993 308.01 55.428 307.357 55.428H295.107V76.694C295.107 79.5033 295.597 81.6267 296.577 83.064C297.557 84.5013 299.19 85.22 301.477 85.22H308.239C308.892 85.22 309.447 85.4487 309.905 85.906C310.362 86.3633 310.591 86.9187 310.591 87.572V93.648C310.591 94.3013 310.362 94.8567 309.905 95.314C309.513 95.7713 308.957 96 308.239 96H300.301ZM321.636 96C320.983 96 320.428 95.7713 319.97 95.314C319.513 94.8567 319.284 94.3013 319.284 93.648V47.49C319.284 46.8367 319.513 46.2813 319.97 45.824C320.428 45.3013 320.983 45.04 321.636 45.04H329.574C330.293 45.04 330.881 45.2687 331.338 45.726C331.796 46.1833 332.024 46.7713 332.024 47.49V51.508C333.592 49.4173 335.552 47.8167 337.904 46.706C340.322 45.5953 343.066 45.04 346.136 45.04H350.154C350.873 45.04 351.428 45.2687 351.82 45.726C352.278 46.118 352.506 46.6733 352.506 47.392V54.448C352.506 55.1013 352.278 55.6567 351.82 56.114C351.428 56.5713 350.873 56.8 350.154 56.8H342.51C339.44 56.8 337.022 57.682 335.258 59.446C333.494 61.21 332.612 63.6273 332.612 66.698V93.648C332.612 94.3013 332.384 94.8567 331.926 95.314C331.469 95.7713 330.881 96 330.162 96H321.636ZM362.11 36.612C361.456 36.612 360.901 36.3833 360.444 35.926C359.986 35.4687 359.758 34.9133 359.758 34.26V27.204C359.758 26.5507 359.986 25.9953 360.444 25.538C360.901 25.0807 361.456 24.852 362.11 24.852H371.028C371.681 24.852 372.236 25.0807 372.694 25.538C373.216 25.9953 373.478 26.5507 373.478 27.204V34.26C373.478 34.9133 373.249 35.4687 372.792 35.926C372.334 36.3833 371.746 36.612 371.028 36.612H362.11ZM362.502 96C361.848 96 361.293 95.7713 360.836 95.314C360.378 94.8567 360.15 94.3013 360.15 93.648V47.392C360.15 46.7387 360.378 46.1833 360.836 45.726C361.293 45.2687 361.848 45.04 362.502 45.04H370.636C371.354 45.04 371.91 45.2687 372.302 45.726C372.759 46.118 372.988 46.6733 372.988 47.392V93.648C372.988 94.3013 372.759 94.8567 372.302 95.314C371.91 95.7713 371.354 96 370.636 96H362.502ZM408.039 96.98C400.853 96.98 395.103 94.9873 390.791 91.002C386.545 87.0167 384.291 81.496 384.029 74.44L383.931 70.52L384.029 66.6C384.291 59.544 386.545 54.0233 390.791 50.038C395.103 46.0527 400.853 44.06 408.039 44.06C413.135 44.06 417.447 44.9747 420.975 46.804C424.569 48.6333 427.215 50.8873 428.913 53.566C430.677 56.1793 431.625 58.662 431.755 61.014C431.821 61.6673 431.592 62.2227 431.069 62.68C430.612 63.1373 430.057 63.366 429.403 63.366H420.779C420.126 63.366 419.603 63.2353 419.211 62.974C418.885 62.6473 418.558 62.1247 418.231 61.406C417.251 58.858 415.945 57.0287 414.311 55.918C412.743 54.8073 410.718 54.252 408.235 54.252C404.903 54.252 402.29 55.33 400.395 57.486C398.501 59.5767 397.488 62.778 397.357 67.09L397.259 70.716L397.357 73.95C397.619 82.5087 401.245 86.788 408.235 86.788C410.783 86.788 412.841 86.2327 414.409 85.122C415.977 84.0113 417.251 82.182 418.231 79.634C418.558 78.9153 418.885 78.4253 419.211 78.164C419.603 77.8373 420.126 77.674 420.779 77.674H429.403C430.057 77.674 430.612 77.9027 431.069 78.36C431.592 78.8173 431.821 79.3727 431.755 80.026C431.625 82.3127 430.71 84.7627 429.011 87.376C427.313 89.9893 424.699 92.2433 421.171 94.138C417.643 96.0327 413.266 96.98 408.039 96.98ZM461.282 96.98C456.382 96.98 452.266 96.2613 448.934 94.824C445.602 93.3213 443.119 91.59 441.486 89.63C439.918 87.6047 439.134 85.8733 439.134 84.436C439.134 83.7827 439.362 83.26 439.82 82.868C440.277 82.476 440.8 82.28 441.388 82.28H449.13C449.718 82.28 450.208 82.5087 450.6 82.966C450.861 83.162 451.547 83.75 452.658 84.73C453.768 85.7753 455.075 86.592 456.578 87.18C458.08 87.768 459.746 88.062 461.576 88.062C464.189 88.062 466.345 87.5393 468.044 86.494C469.742 85.4487 470.592 84.0113 470.592 82.182C470.592 80.81 470.2 79.6993 469.416 78.85C468.697 78.0007 467.358 77.2493 465.398 76.596C463.438 75.8773 460.53 75.126 456.676 74.342C451.122 73.166 447.006 71.3693 444.328 68.952C441.714 66.5347 440.408 63.3333 440.408 59.348C440.408 56.7347 441.192 54.2847 442.76 51.998C444.328 49.646 446.647 47.7513 449.718 46.314C452.854 44.8113 456.578 44.06 460.89 44.06C465.267 44.06 469.056 44.7787 472.258 46.216C475.459 47.588 477.876 49.254 479.51 51.214C481.208 53.1087 482.058 54.8073 482.058 56.31C482.058 56.898 481.829 57.4207 481.372 57.878C480.98 58.27 480.49 58.466 479.902 58.466H472.65C472.127 58.466 471.572 58.2373 470.984 57.78C470.526 57.4533 469.808 56.8327 468.828 55.918C467.848 55.0033 466.704 54.2847 465.398 53.762C464.091 53.2393 462.556 52.978 460.792 52.978C458.374 52.978 456.48 53.5007 455.108 54.546C453.801 55.5913 453.148 56.9633 453.148 58.662C453.148 59.9033 453.474 60.916 454.128 61.7C454.781 62.484 456.055 63.2353 457.95 63.954C459.844 64.6727 462.686 65.3913 466.476 66.11C472.748 67.3513 477.223 69.2787 479.902 71.892C482.646 74.5053 484.018 77.7067 484.018 81.496C484.018 86.0693 482.025 89.7933 478.04 92.668C474.054 95.5427 468.468 96.98 461.282 96.98ZM517.458 96.98C512.623 96.98 508.181 96.1633 504.13 94.53C500.145 92.8967 496.943 90.4467 494.526 87.18C492.109 83.9133 490.835 79.9607 490.704 75.322C490.704 74.734 490.9 74.244 491.292 73.852C491.684 73.3947 492.174 73.166 492.762 73.166H502.072C503.509 73.166 504.489 74.0153 505.012 75.714C505.469 79.1113 506.809 81.6267 509.03 83.26C511.317 84.8933 514.224 85.71 517.752 85.71C521.868 85.71 525.004 84.3707 527.16 81.692C529.381 79.0133 530.492 75.2893 530.492 70.52V38.964H497.27C496.617 38.964 496.061 38.7353 495.604 38.278C495.147 37.8207 494.918 37.2653 494.918 36.612V29.752C494.918 29.0333 495.147 28.478 495.604 28.086C496.061 27.6287 496.617 27.4 497.27 27.4H542.056C542.775 27.4 543.363 27.6287 543.82 28.086C544.277 28.5433 544.506 29.1313 544.506 29.85V70.912C544.506 76.3347 543.395 81.006 541.174 84.926C538.953 88.846 535.784 91.8513 531.668 93.942C527.617 95.9673 522.881 96.98 517.458 96.98ZM572.575 96.98C569.243 96.98 566.172 96.3267 563.363 95.02C560.619 93.648 558.43 91.8187 556.797 89.532C555.229 87.2453 554.445 84.73 554.445 81.986C554.445 77.5433 556.241 73.95 559.835 71.206C563.428 68.462 568.361 66.6 574.633 65.62L588.059 63.66V61.602C588.059 58.7273 587.34 56.5713 585.903 55.134C584.465 53.6967 582.146 52.978 578.945 52.978C576.789 52.978 575.025 53.4027 573.653 54.252C572.346 55.036 571.301 55.82 570.517 56.604C569.733 57.4533 569.21 58.0087 568.949 58.27C568.687 59.054 568.197 59.446 567.479 59.446H559.933C559.345 59.446 558.822 59.25 558.365 58.858C557.973 58.466 557.777 57.9433 557.777 57.29C557.842 55.6567 558.626 53.7947 560.129 51.704C561.697 49.6133 564.081 47.8167 567.283 46.314C570.484 44.8113 574.404 44.06 579.043 44.06C586.752 44.06 592.371 45.7913 595.899 49.254C599.427 52.7167 601.191 57.2573 601.191 62.876V93.648C601.191 94.3013 600.962 94.8567 600.505 95.314C600.113 95.7713 599.557 96 598.839 96H590.901C590.247 96 589.692 95.7713 589.235 95.314C588.777 94.8567 588.549 94.3013 588.549 93.648V89.826C587.111 91.9167 585.053 93.648 582.375 95.02C579.761 96.3267 576.495 96.98 572.575 96.98ZM575.907 87.67C579.5 87.67 582.44 86.494 584.727 84.142C587.013 81.79 588.157 78.36 588.157 73.852V71.794L578.357 73.362C574.567 73.95 571.693 74.8973 569.733 76.204C567.838 77.5107 566.891 79.1113 566.891 81.006C566.891 83.0967 567.773 84.73 569.537 85.906C571.301 87.082 573.424 87.67 575.907 87.67ZM616.115 96C615.462 96 614.906 95.7713 614.449 95.314C613.992 94.8567 613.763 94.3013 613.763 93.648V47.49C613.763 46.8367 613.992 46.2813 614.449 45.824C614.906 45.3013 615.462 45.04 616.115 45.04H624.053C624.772 45.04 625.36 45.2687 625.817 45.726C626.274 46.1833 626.503 46.7713 626.503 47.49V51.508C628.071 49.4173 630.031 47.8167 632.383 46.706C634.8 45.5953 637.544 45.04 640.615 45.04H644.633C645.352 45.04 645.907 45.2687 646.299 45.726C646.756 46.118 646.985 46.6733 646.985 47.392V54.448C646.985 55.1013 646.756 55.6567 646.299 56.114C645.907 56.5713 645.352 56.8 644.633 56.8H636.989C633.918 56.8 631.501 57.682 629.737 59.446C627.973 61.21 627.091 63.6273 627.091 66.698V93.648C627.091 94.3013 626.862 94.8567 626.405 95.314C625.948 95.7713 625.36 96 624.641 96H616.115Z" fill="black"/>
</g>
<defs>
<clipPath id="clip0">
<rect width="650" height="110" fill="white"/>
</clipPath>
</defs>
</svg>
