<svg xmlns="http://www.w3.org/2000/svg" viewBox="0 0 251.79 286"><defs><style>.cls-1{fill:#36c5f1;}.cls-2{fill:#2fb67c;}.cls-3{fill:#e01e5a;}.cls-4{fill:#ecb22d;}</style></defs><title>vibejar_logo</title><g id="Layer_2" data-name="Layer 2"><g id="Layer_2-2" data-name="Layer 2"><path class="cls-1" d="M59.86,100q-1.74,0-3.5-.12A50,50,0,0,1,26.94,12.31a50,50,0,1,1,65.7,75.39A49.63,49.63,0,0,1,59.86,100Zm-.1-70a20,20,0,1,0,20,21.37h0A20,20,0,0,0,61.16,30Q60.46,30,59.76,30Z"/><path class="cls-2" d="M180.86,286q-1.74,0-3.5-.12a50,50,0,1,1,53.31-46.46h0A50,50,0,0,1,180.86,286Zm-.1-70a20,20,0,1,0,1.4,0Q181.46,216,180.76,216Z"/><polygon class="cls-3" points="90.79 185.63 73.45 161.15 48.97 178.48 31.63 154 7.15 171.34 24.48 195.82 0 213.16 17.34 237.64 41.82 220.3 59.16 244.79 83.64 227.45 66.3 202.97 90.79 185.63"/><polygon class="cls-4" points="251.79 94.42 223.13 85.54 232.01 56.88 203.36 48 194.48 76.66 165.82 67.78 156.94 96.43 185.6 105.31 176.72 133.97 205.37 142.85 214.25 114.19 242.91 123.08 251.79 94.42"/></g></g></svg>